<svg xmlns="http://www.w3.org/2000/svg" viewBox="0 0 1200 630" font-family="-apple-system, BlinkMacSystemFont, 'Segoe UI', Helvetica, Arial, sans-serif">
  <title>A Spending Guardrail for Agentic Payments — Hands-On x402</title>

  <rect x="0" y="0" width="1200" height="630" fill="#1c1c1c"/>

  <!-- kicker -->
  <text x="80" y="150" font-size="22" font-weight="600" letter-spacing="3.5" fill="#c3a554">AGENTPAY-GUARD · HANDS-ON X402</text>

  <!-- title -->
  <text x="80" y="232" font-size="66" font-weight="700" fill="#ffffff">A Spending Guardrail</text>
  <text x="80" y="312" font-size="66" font-weight="700" fill="#ffffff">for Agentic Payments</text>

  <!-- policy guarantees -->
  <text x="80" y="388" font-size="24" fill="#b5b5b5"><tspan fill="#c3a554">✓</tspan> tested envelope&#160;&#160;&#160;<tspan fill="#c3a554">✓</tspan> per-payment max</text>
  <text x="80" y="430" font-size="24" fill="#b5b5b5"><tspan fill="#c3a554">✓</tspan> restart-safe budget&#160;&#160;&#160;<tspan fill="#c3a554">✓</tspan> duplicate guard</text>
  <text x="80" y="472" font-size="24" fill="#b5b5b5"><tspan fill="#c3a554">✓</tspan> bounded auth lifetime</text>

  <!-- site -->
  <text x="80" y="565" font-size="22" fill="#767676">themobiusstrip.github.io</text>

  <!-- payment flow line through the shield -->
  <defs>
    <marker id="ah" viewBox="0 0 10 10" refX="9" refY="5" markerWidth="8" markerHeight="8" orient="auto">
      <path d="M0,0 L10,5 L0,10 z" fill="#555555"/>
    </marker>
  </defs>
  <line x1="800" y1="470" x2="1150" y2="470" stroke="#555555" stroke-width="3" stroke-dasharray="8 7" marker-end="url(#ah)"/>

  <!-- coin -->
  <circle cx="838" cy="470" r="24" fill="#c3a554"/>
  <text x="838" y="479" font-size="26" font-weight="700" fill="#1c1c1c" text-anchor="middle">$</text>

  <!-- shield -->
  <path d="M975,388 C1005,403 1035,411 1060,413 V470 C1060,522 1025,548 975,568 C925,548 890,522 890,470 V413 C915,411 945,403 975,388 Z" fill="#22303d" stroke="#337ab7" stroke-width="5"/>
  <polyline points="945,472 968,498 1012,446" fill="none" stroke="#c3a554" stroke-width="10" stroke-linecap="round" stroke-linejoin="round"/>
</svg>
